<mxfile host="Electron" modified="2023-08-29T20:49:38.871Z" agent="Mozilla/5.0 (Windows NT 10.0; Win64; x64) AppleWebKit/537.36 (KHTML, like Gecko) draw.io/21.6.5 Chrome/114.0.5735.243 Electron/25.3.1 Safari/537.36" etag="3eKfFQi1Oi-RnZbWz67x" version="21.6.5" type="device">
  <diagram name="Page-1" id="dNl0jdbF4bxvfNP9bMwt">
    <mxGraphModel dx="4320" dy="6087" grid="1" gridSize="10" guides="1" tooltips="1" connect="1" arrows="1" fold="1" page="1" pageScale="1" pageWidth="827" pageHeight="1169" math="0" shadow="0">
      <root>
        <mxCell id="0" />
        <mxCell id="1" parent="0" />
        <mxCell id="7-BtLdfDrwF-gUliJ2Cg-1" value="&lt;font style=&quot;font-size: 36px;&quot;&gt;Admin&lt;/font&gt;" style="shape=umlActor;verticalLabelPosition=bottom;verticalAlign=top;html=1;outlineConnect=0;" vertex="1" parent="1">
          <mxGeometry x="360" y="-1950" width="150" height="190" as="geometry" />
        </mxCell>
        <mxCell id="7-BtLdfDrwF-gUliJ2Cg-2" value="&lt;font style=&quot;font-size: 36px;&quot;&gt;Repo&lt;br&gt;management&lt;/font&gt;" style="ellipse;whiteSpace=wrap;html=1;" vertex="1" parent="1">
          <mxGeometry x="850" y="-1940" width="320" height="120" as="geometry" />
        </mxCell>
        <mxCell id="7-BtLdfDrwF-gUliJ2Cg-3" value="&lt;font style=&quot;font-size: 36px;&quot;&gt;Logout&lt;/font&gt;" style="ellipse;whiteSpace=wrap;html=1;" vertex="1" parent="1">
          <mxGeometry x="910" y="-1790" width="270" height="120" as="geometry" />
        </mxCell>
        <mxCell id="7-BtLdfDrwF-gUliJ2Cg-4" value="&lt;span style=&quot;font-size: 36px;&quot;&gt;camp management&lt;/span&gt;" style="ellipse;whiteSpace=wrap;html=1;" vertex="1" parent="1">
          <mxGeometry x="825" y="-2100" width="310" height="140" as="geometry" />
        </mxCell>
        <mxCell id="7-BtLdfDrwF-gUliJ2Cg-5" value="&lt;font style=&quot;font-size: 36px;&quot;&gt;Login&lt;/font&gt;" style="ellipse;whiteSpace=wrap;html=1;" vertex="1" parent="1">
          <mxGeometry x="630" y="-2180" width="240" height="100" as="geometry" />
        </mxCell>
        <mxCell id="7-BtLdfDrwF-gUliJ2Cg-6" value="" style="endArrow=none;html=1;rounded=0;entryX=0.304;entryY=0.961;entryDx=0;entryDy=0;entryPerimeter=0;" edge="1" parent="1" target="7-BtLdfDrwF-gUliJ2Cg-5">
          <mxGeometry width="50" height="50" relative="1" as="geometry">
            <mxPoint x="530" y="-1890" as="sourcePoint" />
            <mxPoint x="920" y="-1800" as="targetPoint" />
          </mxGeometry>
        </mxCell>
        <mxCell id="7-BtLdfDrwF-gUliJ2Cg-7" value="" style="endArrow=none;html=1;rounded=0;entryX=0;entryY=0.5;entryDx=0;entryDy=0;" edge="1" parent="1" target="7-BtLdfDrwF-gUliJ2Cg-4">
          <mxGeometry width="50" height="50" relative="1" as="geometry">
            <mxPoint x="530" y="-1890" as="sourcePoint" />
            <mxPoint x="920" y="-1800" as="targetPoint" />
          </mxGeometry>
        </mxCell>
        <mxCell id="7-BtLdfDrwF-gUliJ2Cg-8" value="" style="endArrow=none;html=1;rounded=0;exitX=0.263;exitY=0.053;exitDx=0;exitDy=0;exitPerimeter=0;" edge="1" parent="1" source="7-BtLdfDrwF-gUliJ2Cg-3">
          <mxGeometry width="50" height="50" relative="1" as="geometry">
            <mxPoint x="870" y="-1750" as="sourcePoint" />
            <mxPoint x="530" y="-1890" as="targetPoint" />
          </mxGeometry>
        </mxCell>
        <mxCell id="7-BtLdfDrwF-gUliJ2Cg-9" value="" style="endArrow=none;html=1;rounded=0;entryX=0;entryY=0;entryDx=0;entryDy=0;" edge="1" parent="1" target="7-BtLdfDrwF-gUliJ2Cg-2">
          <mxGeometry width="50" height="50" relative="1" as="geometry">
            <mxPoint x="530" y="-1890" as="sourcePoint" />
            <mxPoint x="920" y="-1800" as="targetPoint" />
          </mxGeometry>
        </mxCell>
        <mxCell id="7-BtLdfDrwF-gUliJ2Cg-10" value="&lt;font style=&quot;font-size: 36px;&quot;&gt;user&lt;/font&gt;" style="shape=umlActor;verticalLabelPosition=bottom;verticalAlign=top;html=1;outlineConnect=0;" vertex="1" parent="1">
          <mxGeometry x="60" y="-2820" width="140" height="170" as="geometry" />
        </mxCell>
        <mxCell id="7-BtLdfDrwF-gUliJ2Cg-11" value="&lt;span style=&quot;font-size: 36px;&quot;&gt;View Posts&lt;/span&gt;" style="ellipse;whiteSpace=wrap;html=1;" vertex="1" parent="1">
          <mxGeometry x="980" y="-3200" width="250" height="110" as="geometry" />
        </mxCell>
        <mxCell id="7-BtLdfDrwF-gUliJ2Cg-12" value="&lt;font style=&quot;font-size: 36px;&quot;&gt;view&lt;br&gt;status&lt;/font&gt;" style="ellipse;whiteSpace=wrap;html=1;" vertex="1" parent="1">
          <mxGeometry x="920" y="-2650" width="210" height="120" as="geometry" />
        </mxCell>
        <mxCell id="7-BtLdfDrwF-gUliJ2Cg-13" value="&lt;font style=&quot;font-size: 36px;&quot;&gt;View&amp;nbsp;&lt;br&gt;Blood Stock&lt;br&gt;&lt;/font&gt;" style="ellipse;whiteSpace=wrap;html=1;" vertex="1" parent="1">
          <mxGeometry x="670" y="-3220" width="270" height="100" as="geometry" />
        </mxCell>
        <mxCell id="7-BtLdfDrwF-gUliJ2Cg-14" value="&lt;span style=&quot;font-size: 36px;&quot;&gt;contact donor&lt;/span&gt;" style="ellipse;whiteSpace=wrap;html=1;" vertex="1" parent="1">
          <mxGeometry x="1060" y="-2940" width="210" height="100" as="geometry" />
        </mxCell>
        <mxCell id="7-BtLdfDrwF-gUliJ2Cg-15" value="&lt;font style=&quot;font-size: 36px;&quot;&gt;Login&lt;/font&gt;" style="ellipse;whiteSpace=wrap;html=1;" vertex="1" parent="1">
          <mxGeometry x="414" y="-3170" width="220" height="80" as="geometry" />
        </mxCell>
        <mxCell id="7-BtLdfDrwF-gUliJ2Cg-16" value="&lt;font style=&quot;font-size: 36px;&quot;&gt;Logout&lt;/font&gt;" style="ellipse;whiteSpace=wrap;html=1;" vertex="1" parent="1">
          <mxGeometry x="714" y="-2520" width="220" height="100" as="geometry" />
        </mxCell>
        <mxCell id="7-BtLdfDrwF-gUliJ2Cg-17" value="&lt;font style=&quot;font-size: 36px;&quot;&gt;Registration&lt;/font&gt;" style="ellipse;whiteSpace=wrap;html=1;" vertex="1" parent="1">
          <mxGeometry x="120" y="-3170" width="270" height="100" as="geometry" />
        </mxCell>
        <mxCell id="7-BtLdfDrwF-gUliJ2Cg-18" value="&lt;font style=&quot;font-size: 36px;&quot;&gt;update and&lt;br&gt;delete Post&lt;/font&gt;" style="ellipse;whiteSpace=wrap;html=1;" vertex="1" parent="1">
          <mxGeometry x="920" y="-2820" width="280" height="130" as="geometry" />
        </mxCell>
        <mxCell id="7-BtLdfDrwF-gUliJ2Cg-19" value="&lt;font style=&quot;font-size: 36px;&quot;&gt;search &lt;br&gt;for Blood&lt;br&gt;&lt;/font&gt;" style="ellipse;whiteSpace=wrap;html=1;" vertex="1" parent="1">
          <mxGeometry x="900" y="-3040" width="250" height="100" as="geometry" />
        </mxCell>
        <mxCell id="7-BtLdfDrwF-gUliJ2Cg-20" value="" style="endArrow=none;html=1;rounded=0;entryX=0;entryY=0.5;entryDx=0;entryDy=0;" edge="1" parent="1" target="7-BtLdfDrwF-gUliJ2Cg-14">
          <mxGeometry width="50" height="50" relative="1" as="geometry">
            <mxPoint x="230" y="-2760" as="sourcePoint" />
            <mxPoint x="800" y="-2650" as="targetPoint" />
          </mxGeometry>
        </mxCell>
        <mxCell id="7-BtLdfDrwF-gUliJ2Cg-21" value="" style="endArrow=none;html=1;rounded=0;entryX=0.5;entryY=0;entryDx=0;entryDy=0;" edge="1" parent="1" target="7-BtLdfDrwF-gUliJ2Cg-16">
          <mxGeometry width="50" height="50" relative="1" as="geometry">
            <mxPoint x="230" y="-2760" as="sourcePoint" />
            <mxPoint x="800" y="-2650" as="targetPoint" />
          </mxGeometry>
        </mxCell>
        <mxCell id="7-BtLdfDrwF-gUliJ2Cg-22" value="" style="endArrow=none;html=1;rounded=0;entryX=0.5;entryY=1;entryDx=0;entryDy=0;" edge="1" parent="1" target="7-BtLdfDrwF-gUliJ2Cg-17">
          <mxGeometry width="50" height="50" relative="1" as="geometry">
            <mxPoint x="230" y="-2760" as="sourcePoint" />
            <mxPoint x="800" y="-2650" as="targetPoint" />
          </mxGeometry>
        </mxCell>
        <mxCell id="7-BtLdfDrwF-gUliJ2Cg-23" value="" style="endArrow=none;html=1;rounded=0;entryX=0;entryY=1;entryDx=0;entryDy=0;" edge="1" parent="1" target="7-BtLdfDrwF-gUliJ2Cg-11">
          <mxGeometry width="50" height="50" relative="1" as="geometry">
            <mxPoint x="230" y="-2760" as="sourcePoint" />
            <mxPoint x="800" y="-2650" as="targetPoint" />
          </mxGeometry>
        </mxCell>
        <mxCell id="7-BtLdfDrwF-gUliJ2Cg-24" value="" style="endArrow=none;html=1;rounded=0;entryX=0;entryY=1;entryDx=0;entryDy=0;" edge="1" parent="1" target="7-BtLdfDrwF-gUliJ2Cg-15">
          <mxGeometry width="50" height="50" relative="1" as="geometry">
            <mxPoint x="230" y="-2760" as="sourcePoint" />
            <mxPoint x="800" y="-2650" as="targetPoint" />
          </mxGeometry>
        </mxCell>
        <mxCell id="7-BtLdfDrwF-gUliJ2Cg-25" value="" style="endArrow=none;html=1;rounded=0;entryX=0.307;entryY=0.953;entryDx=0;entryDy=0;entryPerimeter=0;" edge="1" parent="1" target="7-BtLdfDrwF-gUliJ2Cg-13">
          <mxGeometry width="50" height="50" relative="1" as="geometry">
            <mxPoint x="230" y="-2760" as="sourcePoint" />
            <mxPoint x="800" y="-2650" as="targetPoint" />
          </mxGeometry>
        </mxCell>
        <mxCell id="7-BtLdfDrwF-gUliJ2Cg-26" value="" style="endArrow=none;html=1;rounded=0;entryX=0;entryY=0.5;entryDx=0;entryDy=0;" edge="1" parent="1" target="7-BtLdfDrwF-gUliJ2Cg-19">
          <mxGeometry width="50" height="50" relative="1" as="geometry">
            <mxPoint x="230" y="-2760" as="sourcePoint" />
            <mxPoint x="800" y="-2650" as="targetPoint" />
          </mxGeometry>
        </mxCell>
        <mxCell id="7-BtLdfDrwF-gUliJ2Cg-27" value="" style="endArrow=none;html=1;rounded=0;" edge="1" parent="1" target="7-BtLdfDrwF-gUliJ2Cg-18">
          <mxGeometry width="50" height="50" relative="1" as="geometry">
            <mxPoint x="230" y="-2760" as="sourcePoint" />
            <mxPoint x="800" y="-2650" as="targetPoint" />
          </mxGeometry>
        </mxCell>
        <mxCell id="7-BtLdfDrwF-gUliJ2Cg-28" value="" style="endArrow=none;html=1;rounded=0;entryX=0;entryY=0;entryDx=0;entryDy=0;" edge="1" parent="1" target="7-BtLdfDrwF-gUliJ2Cg-12">
          <mxGeometry width="50" height="50" relative="1" as="geometry">
            <mxPoint x="230" y="-2760" as="sourcePoint" />
            <mxPoint x="800" y="-2650" as="targetPoint" />
          </mxGeometry>
        </mxCell>
        <mxCell id="7-BtLdfDrwF-gUliJ2Cg-29" value="&lt;font style=&quot;font-size: 36px;&quot;&gt;Blood Bank&lt;/font&gt;" style="shape=umlActor;verticalLabelPosition=bottom;verticalAlign=top;html=1;outlineConnect=0;" vertex="1" parent="1">
          <mxGeometry x="414" y="-1200" width="150" height="190" as="geometry" />
        </mxCell>
        <mxCell id="7-BtLdfDrwF-gUliJ2Cg-30" value="&lt;span style=&quot;font-size: 36px;&quot;&gt;manage Stocks&amp;nbsp;&lt;/span&gt;" style="ellipse;whiteSpace=wrap;html=1;" vertex="1" parent="1">
          <mxGeometry x="890" y="-1165" width="320" height="120" as="geometry" />
        </mxCell>
        <mxCell id="7-BtLdfDrwF-gUliJ2Cg-31" value="&lt;font style=&quot;font-size: 36px;&quot;&gt;Logout&lt;/font&gt;" style="ellipse;whiteSpace=wrap;html=1;" vertex="1" parent="1">
          <mxGeometry x="870" y="-1030" width="270" height="120" as="geometry" />
        </mxCell>
        <mxCell id="7-BtLdfDrwF-gUliJ2Cg-32" value="&lt;span style=&quot;font-size: 36px;&quot;&gt;view status&lt;/span&gt;" style="ellipse;whiteSpace=wrap;html=1;" vertex="1" parent="1">
          <mxGeometry x="890" y="-1320" width="310" height="140" as="geometry" />
        </mxCell>
        <mxCell id="7-BtLdfDrwF-gUliJ2Cg-33" value="&lt;font style=&quot;font-size: 36px;&quot;&gt;Login&lt;/font&gt;" style="ellipse;whiteSpace=wrap;html=1;" vertex="1" parent="1">
          <mxGeometry x="714" y="-1410" width="240" height="100" as="geometry" />
        </mxCell>
        <mxCell id="7-BtLdfDrwF-gUliJ2Cg-34" value="" style="endArrow=none;html=1;rounded=0;entryX=0.304;entryY=0.948;entryDx=0;entryDy=0;entryPerimeter=0;" edge="1" parent="1" target="7-BtLdfDrwF-gUliJ2Cg-33">
          <mxGeometry width="50" height="50" relative="1" as="geometry">
            <mxPoint x="580" y="-1140" as="sourcePoint" />
            <mxPoint x="974" y="-1050" as="targetPoint" />
          </mxGeometry>
        </mxCell>
        <mxCell id="7-BtLdfDrwF-gUliJ2Cg-35" value="" style="endArrow=none;html=1;rounded=0;entryX=0;entryY=0.5;entryDx=0;entryDy=0;" edge="1" parent="1" target="7-BtLdfDrwF-gUliJ2Cg-32">
          <mxGeometry width="50" height="50" relative="1" as="geometry">
            <mxPoint x="580" y="-1140" as="sourcePoint" />
            <mxPoint x="974" y="-1050" as="targetPoint" />
          </mxGeometry>
        </mxCell>
        <mxCell id="7-BtLdfDrwF-gUliJ2Cg-36" value="" style="endArrow=none;html=1;rounded=0;exitX=0.106;exitY=0.192;exitDx=0;exitDy=0;exitPerimeter=0;" edge="1" parent="1" source="7-BtLdfDrwF-gUliJ2Cg-31">
          <mxGeometry width="50" height="50" relative="1" as="geometry">
            <mxPoint x="924" y="-1000" as="sourcePoint" />
            <mxPoint x="580" y="-1140" as="targetPoint" />
          </mxGeometry>
        </mxCell>
        <mxCell id="7-BtLdfDrwF-gUliJ2Cg-37" value="" style="endArrow=none;html=1;rounded=0;entryX=0;entryY=0;entryDx=0;entryDy=0;" edge="1" parent="1" target="7-BtLdfDrwF-gUliJ2Cg-30">
          <mxGeometry width="50" height="50" relative="1" as="geometry">
            <mxPoint x="580" y="-1140" as="sourcePoint" />
            <mxPoint x="974" y="-1050" as="targetPoint" />
          </mxGeometry>
        </mxCell>
      </root>
    </mxGraphModel>
  </diagram>
</mxfile>
